# xmcd CD database file
#
# Track frame offsets:
#	150
#	16480
#	32795
#	48833
#	61941
#	75540
#	90011
#	104306
#	119553
#	131146
#	145717
#	168752
#	215998
#	226408
#	249697
#	264405
#	277138
#	294945
#
# Disc length: 4205 seconds
#
# Revision: 1
# Processed by: cddbd v1.5.2PL0 Copyright (c) Steve Scherf et al.
# Submitted via: CDex 1.51
#
DISCID=fd106b12
DTITLE=Eric Clapton - Hits - Disc1
DYEAR=1900
DGENRE=Blues
TTITLE0=Slunky
TTITLE1=Bad Boy
TTITLE2=Lonesome and A Long Way From Home
TTITLE3=After Midnight
TTITLE4=Easy Now
TTITLE5=Blues Power
TTITLE6=Bottle of Red Wine
TTITLE7=Lovin' You Lovin' Me
TTITLE8=I've told you for the last time
TTITLE9=Don't Know Why
TTITLE10=Let it Rain
TTITLE11=Blues in 'a' - (Session Outtake)
TTITLE12=Teasin
TTITLE13=She Rides - (Let it Rain Original Version)
TTITLE14=Comin' Home
TTITLE15=Groupie (Superstar)
TTITLE16=Change the World
TTITLE17=Tears in Heaven
EXTD=
EXTT0=
EXTT1=
EXTT2=
EXTT3=
EXTT4=
EXTT5=
EXTT6=
EXTT7=
EXTT8=
EXTT9=
EXTT10=
EXTT11=
EXTT12=
EXTT13=
EXTT14=
EXTT15=
EXTT16=
EXTT17=
PLAYORDER=
